# xmcd CD database file
#
# Track frame offsets:
#	150
#	9819
#	31915
#	45111
#	79672
#	101275
#	127715
#	157289
#	177932
#	190256
#	206722
#	228744
#
# Disc length: 3303 seconds
#
# Revision: 0
# Processed by: cddbd v1.5.2PL0 Copyright (c) Steve Scherf et al.
# Submitted via: CDex 1.70beta2
#
DISCID=880ce50c
DTITLE=Lars Danielsson - Liberetto
DYEAR=2011
DGENRE=Jazz
TTITLE0=Yerevan
TTITLE1=Liberetto
TTITLE2=Day One
TTITLE3=Orange Market
TTITLE4=Hymnen
TTITLE5=Svensk Låt
TTITLE6=Hov Arek Sarer DJan
TTITLE7=Party On The Planet
TTITLE8=Tystnaden
TTITLE9=Ahdes Theme
TTITLE10=Driven To Daylight
TTITLE11=Blå Ängar
EXTD=YEAR: 2011
EXTT0=
EXTT1=
EXTT2=
EXTT3=
EXTT4=
EXTT5=
EXTT6=
EXTT7=
EXTT8=
EXTT9=
EXTT10=
EXTT11=
PLAYORDER=
